PathFileType	4	(X/Y/Z)	/Users/niels/Desktop/University/Third Semester/Perception and Action/Exam/Gymnastics Motion Tracking/Code for Gym Tracking/Analyzed Data/Webcam_Backflip/id6_2_pure_Sports2D/id6_2_pure_Sports2D_px_person00.trc
DataRate	CameraRate	NumFrames	NumMarkers	Units	OrigDataRate	OrigDataStartFrame	OrigNumFrames
29.81132075471698	29.81132075471698	8	22	m	29.81132075471698	79	159
Frame#	Time	Hip			RHip			RKnee			RAnkle			RBigToe			RSmallToe			RHeel			LHip			LKnee			LAnkle			LBigToe			LSmallToe			LHeel			Neck			Head			Nose			RShoulder			RElbow			RWrist			LShoulder			LElbow			LWrist		
		X1	Y1	Z1	X2	Y2	Z2	X3	Y3	Z3	X4	Y4	Z4	X5	Y5	Z5	X6	Y6	Z6	X7	Y7	Z7	X8	Y8	Z8	X9	Y9	Z9	X10	Y10	Z10	X11	Y11	Z11	X12	Y12	Z12	X13	Y13	Z13	X14	Y14	Z14	X15	Y15	Z15	X16	Y16	Z16	X17	Y17	Z17	X18	Y18	Z18	X19	Y19	Z19	X20	Y20	Z20	X21	Y21	Z21	X22	Y22	Z22
79	2.65	0.8264164909797795	-0.3497765580365699	0.0	0.8273141802763608	-0.3484909258379883	0.0	0.8619058943824557	-0.44441458495303	0.0	0.8631184657857042	-0.5453736141402061	0.0	0.8787695907981468	-0.5895284198099461	0.0	0.8727617715088876	-0.5888391806379102	0.0	0.8581647062790547	-0.5601196483378893	0.0	0.8220985614083429	-0.3484866460028767	0.0	0.8560099623936783	-0.4465645069079846	0.0	0.8622901452222238	-0.5452349090255182	0.0	0.8779120965242189	-0.5895203693612399	0.0	0.8767320136273115	-0.5857706452886351	0.0	0.8547220877521525	-0.5592305061629672	0.0	0.8678863972903592	-0.23711780159885648	0.0	0.929188668604777	-0.18730495420235688	0.0	0.913254769479389	-0.22509385626643152	0.0	0.8651659354949477	-0.23594770110089772	0.0	0.9055843122080315	-0.29617231684568257	0.0	0.9554940172133235	-0.32957986907031217	0.0	0.8571952443376225	-0.23820371783228703	0.0	0.8952918053195466	-0.3048564446280925	0.0	0.9360661822487697	-0.3460444867383414	0.0
80	2.6835443037974684	0.8307390677605307	-0.3546468678891669	0.0	0.8318673582251036	-0.3536175891703495	0.0	0.8684788777739411	-0.4491092553906619	0.0	0.8695926957012999	-0.5504726064726868	0.0	0.8861786715344783	-0.595513032142037	0.0	0.8797832550788874	-0.5946873041289465	0.0	0.8641286803503773	-0.565226492328001	0.0	0.8264023794340434	-0.3535558269752814	0.0	0.8619400855256496	-0.4509262074259949	0.0	0.8683865360293568	-0.5497346232082326	0.0	0.8856868228766671	-0.593808794943541	0.0	0.8835462454951659	-0.5896287588749861	0.0	0.8607186921695961	-0.5644852827409288	0.0	0.8722772789694895	-0.24198841737917667	0.0	0.9329974041911574	-0.19214945188142948	0.0	0.9170356239675902	-0.23005072334162086	0.0	0.8682917621619678	-0.24329715659779105	0.0	0.8992270753819661	-0.30941477260627714	0.0	0.942303303424254	-0.3520995457867192	0.0	0.861962462122247	-0.24416066585171692	0.0	0.8928638256894523	-0.31413418516410024	0.0	0.9274163722120025	-0.360901253400336	0.0
81	2.7170886075949365	0.8354311924283869	-0.3635488804663969	0.0	0.83687865082025	-0.36277114608220845	0.0	0.8748227729595974	-0.4579301667628497	0.0	0.8763356743277612	-0.5598106910781625	0.0	0.8942381171263034	-0.6056310863307164	0.0	0.8875550632112418	-0.60485565512886	0.0	0.870357819578837	-0.5746860706423401	0.0	0.8313162257113577	-0.3624310970412182	0.0	0.8672565014102045	-0.4596476729037736	0.0	0.8740851791706508	-0.5583681336692079	0.0	0.8933561571286551	-0.60178666677411	0.0	0.8900978430287212	-0.5972044723543521	0.0	0.8663658159030652	-0.5739058731785264	0.0	0.8773278224528547	-0.24962957781477255	0.0	0.9366018355263717	-0.20005196946533016	0.0	0.9210772830929328	-0.23769499044538875	0.0	0.8718020461453452	-0.2539419073298178	0.0	0.8927237311810012	-0.3233623334673155	0.0	0.9283898238079786	-0.3735034094680141	0.0	0.8669028987803629	-0.25329525170937617	0.0	0.8890254208374735	-0.3246569183119478	0.0	0.917359566241534	-0.3751751000947009	0.0
82	2.750632911392405	0.8404708700217884	-0.3765737224533997	0.0	0.842256131814084	-0.37597947246026686	0.0	0.8809938472417121	-0.4710868412696578	0.0	0.8834445137876328	-0.5736073034353792	0.0	0.9031245861320413	-0.6195681662926972	0.0	0.896149095637794	-0.6190489380116109	0.0	0.8771096491958591	-0.5888872984510677	0.0	0.8365472033917047	-0.37522136409178763	0.0	0.8718087229653714	-0.47296034195686953	0.0	0.8791164371810449	-0.5715234609441815	0.0	0.9005892494257265	-0.6134257629223474	0.0	0.8962590479098262	-0.6086089852387571	0.0	0.8714672112779499	-0.587722771877125	0.0	0.8828726771727919	-0.2602953990683833	0.0	0.939659865606739	-0.21110862875949502	0.0	0.925328776538533	-0.2481816656254793	0.0	0.8756787129541009	-0.2677452005262741	0.0	0.8864327364696788	-0.3380278970840481	0.0	0.9149062537986431	-0.39364531139410813	0.0	0.8718025284925967	-0.26575299704667266	0.0	0.8838976223135838	-0.33664336350657137	0.0	0.9061510111837581	-0.3897417239171868	0.0
83	2.784177215189873	0.8457796987146873	-0.3939044471604581	0.0	0.8478107684266922	-0.3933359772443821	0.0	0.8870705076273016	-0.4886148516513542	0.0	0.8908176513225343	-0.5918887761880686	0.0	0.912538223579124	-0.6368237325623907	0.0	0.9051507051246369	-0.6367342906973263	0.0	0.8843392894578163	-0.6080182371486726	0.0	0.8419516368657989	-0.39215692769693833	0.0	0.8757126374583599	-0.4908276328194808	0.0	0.8831140332267017	-0.5894102110126033	0.0	0.9068632494909987	-0.6287527667307111	0.0	0.9016294543434658	-0.6239349186015958	0.0	0.8757207129750554	-0.6060551179497043	0.0	0.8886235608722002	-0.27444091420202926	0.0	0.9417050067466312	-0.22541184111147775	0.0	0.9295964989407907	-0.26181300224822557	0.0	0.8798071036204239	-0.2848230885415321	0.0	0.880537460936297	-0.3540369723962771	0.0	0.9026360465964753	-0.41316638406496686	0.0	0.8766023950336314	-0.28178094162486644	0.0	0.8781053207850202	-0.35084112498973286	0.0	0.894196395300366	-0.4059394104355516	0.0
84	2.8177215189873417	0.8512519714442163	-0.41570538820166963	0.0	0.8533643201748167	-0.4149565771849054	0.0	0.8931159105871296	-0.5103879171147128	0.0	0.8981287209746711	-0.6144579191581835	0.0	0.9217165598843464	-0.6569115791527869	0.0	0.913761662887432	-0.6573148469759489	0.0	0.8916537383985602	-0.6318951142151898	0.0	0.8474292901362807	-0.41346648717602846	0.0	0.8791653745919462	-0.51306649616426	0.0	0.8857160015100068	-0.6119968196993038	0.0	0.9116800617983073	-0.6479209970785565	0.0	0.905686993519343	-0.6433517048594339	0.0	0.8787809718548426	-0.628918265367904	0.0	0.8942321213320731	-0.29256649160706943	0.0	0.9425518998544777	-0.2432324551744032	0.0	0.9335588822899084	-0.2790625467510092	0.0	0.8840815902002963	-0.3054281215509171	0.0	0.8751986737219594	-0.372323597499207	0.0	0.8920487852766597	-0.43320094505848084	0.0	0.8812454946611243	-0.30157209536091123	0.0	0.87254052418826	-0.36823030054982936	0.0	0.8819940447546133	-0.42502683689172505	0.0
85	2.85126582278481	0.8568008025436534	-0.44196689622014673	0.0	0.8588313211230456	-0.4408688421699489	0.0	0.8991419792317601	-0.536189072355231	0.0	0.9048010268985623	-0.6408650278912492	0.0	0.9296969835493384	-0.6795337191321151	0.0	0.9210514010992016	-0.6803495279650805	0.0	0.8983318692471587	-0.6598673956200232	0.0	0.8527913697238776	-0.43924556849624957	0.0	0.8823255207872258	-0.5394879408901474	0.0	0.8867035931591736	-0.6389443333276107	0.0	0.9147061039635399	-0.6710672531481175	0.0	0.9079654743484513	-0.6669644499089399	0.0	0.8803447492696066	-0.656094860906326	0.0	0.8993088437768019	-0.31507999247630214	0.0	0.9424102375545272	-0.26505330691996104	0.0	0.9368144386918922	-0.3003743070673365	0.0	0.8884185206726205	-0.3297516266592526	0.0	0.8706809128105738	-0.39364080810413743	0.0	0.8835441556009683	-0.45489215591253607	0.0	0.8855356340149272	-0.32524635321926887	0.0	0.8678082653285134	-0.3895041244192467	0.0	0.8698833109052647	-0.4477577339923826	0.0
86	2.8848101265822783	0.8623631202893594	-0.4723812910117954	0.0	0.8642092492277128	-0.4708802823691954	0.0	0.9050821270205599	-0.5656960101917963	0.0	0.9100831443036685	-0.6704064487915988	0.0	0.9356639821448886	-0.704565256101994	0.0	0.9262331548044292	-0.7056288658162899	0.0	0.9034821369506981	-0.6909175051796448	0.0	0.8578490502868314	-0.4693295445650381	0.0	0.8853254985569108	-0.5698135230047299	0.0	0.8861271711105865	-0.6695250178821475	0.0	0.9158420943841763	-0.6980531164866758	0.0	0.90821260243901	-0.6944978047811825	0.0	0.8802866116780472	-0.6869141540971735	0.0	0.9034849967323052	-0.3421481939053741	0.0	0.9416905863720989	-0.2912166652657892	0.0	0.9390575667030504	-0.32589544686732197	0.0	0.8926805547978172	-0.3577668202982006	0.0	0.8673581050721026	-0.41828037791663414	0.0	0.8776096046350464	-0.47906213822121646	0.0	0.8891837781606958	-0.35283312206413076	0.0	0.8640179512785454	-0.4147681875209695	0.0	0.8582568240939524	-0.47418621257204213	0.0
